<?xml version="1.0" encoding="utf-8"?>
<!-- Svg Vector Icons : http://www.onlinewebfonts.com/icon -->
<!DOCTYPE svg PUBLIC "-//W3C//DTD SVG 1.1//EN" "http://www.w3.org/Graphics/SVG/1.1/DTD/svg11.dtd">
<svg version="1.1" xmlns="http://www.w3.org/2000/svg" xmlns:xlink="http://www.w3.org/1999/xlink" x="0px" y="0px" viewBox="0 0 1000 1000" enable-background="new 0 0 1000 1000" xml:space="preserve">
<metadata> Svg Vector Icons : http://www.onlinewebfonts.com/icon </metadata>
<g><path d="M846.7,153.8C754.1,61.4,631,10.5,500.1,10.5c-130.9,0-254,50.9-346.5,143.3C61,246.3,10,369.2,10,500c0,130.8,50.9,253.7,143.5,346.1C246,938.6,369.1,989.5,500,989.5c131,0,254.1-51,346.7-143.4C1037.8,655.3,1037.8,344.7,846.7,153.8L846.7,153.8L846.7,153.8z M801.9,800.9c-80.6,80.4-187.7,124.8-301.7,124.8c-113.9,0-221-44.3-301.5-124.7C118.2,720.6,73.8,613.6,73.9,499.8c0-113.8,44.3-220.8,124.9-301.2c80.6-80.4,187.6-124.7,301.5-124.7c113.9,0,221,44.3,301.6,124.7C968.1,364.7,968.1,634.9,801.9,800.9L801.9,800.9L801.9,800.9z M665.7,341c-31.7,0-57.4,25.6-57.4,57.2c0,31.5,25.7,57.1,57.4,57.1c31.7,0,57.4-25.6,57.4-57.1C723.1,366.6,697.4,341,665.7,341L665.7,341L665.7,341z M360.2,455.3c31.7,0,57.4-25.6,57.4-57.1c0-31.6-25.7-57.2-57.4-57.2c-31.6,0-57.4,25.6-57.4,57.2C302.7,429.7,328.5,455.3,360.2,455.3L360.2,455.3L360.2,455.3z M500.6,582.6c-80.2,0-150.9,42-192.8,106.2c-12.9,19.8,1.2,46.4,24.5,46.4h2.3c9.3,0,18.4-4.4,23.7-12.4c31.4-47,83.4-77.7,142.3-77.7c59.2,0,111.6,30.3,142.9,77.6c5.3,8,14.4,12.4,23.8,12.4h1.4c23.3,0,37.4-26.6,24.5-46.4C651.1,624.7,580.5,582.6,500.6,582.6L500.6,582.6L500.6,582.6z"/></g>
</svg>